PathFileType	4	(X/Y/Z)	Patient4_TMGait_0pt6_02_right_23.trc.trc
DataRate	CameraRate	NumFrames	NumMarkers	Units	OrigDataRate	OrigDataStartFrame	OrigNumFrames
85.889570552147	85.889570552147	4	33	mm	85.889570552147	106	       141
Frame#	Time	Sacral			L.Shoulder			Chest			R.Shoulder			Neck			R.ASIS			L.ASIS			R.Thigh.Superior			R.Thigh.Lateral			R.Thigh.Inferior			R.Patella			L.Thigh.Superior			L.Thigh.Lateral			L.Thigh.Inferior			L.Patella			L.Shank.Superior			L.Shank.Lateral			L.Shank.Inferior			R.Shank.Superior			R.Shank.Lateral			R.Shank.Inferior			R.Heel			R.Midfoot.Superior			R.Midfoot.Lateral			R.Toe			L.Heel			L.Midfoot.Lateral			L.Midfoot.Superior			L.Toe			L.Elbow			L.Wrist			R.Elbow			R.Wrist			
		X1	Y1	Z1	X2	Y2	Z2	X3	Y3	Z3	X4	Y4	Z4	X5	Y5	Z5	X6	Y6	Z6	X7	Y7	Z7	X8	Y8	Z8	X9	Y9	Z9	X10	Y10	Z10	X11	Y11	Z11	X12	Y12	Z12	X13	Y13	Z13	X14	Y14	Z14	X15	Y15	Z15	X16	Y16	Z16	X17	Y17	Z17	X18	Y18	Z18	X19	Y19	Z19	X20	Y20	Z20	X21	Y21	Z21	X22	Y22	Z22	X23	Y23	Z23	X24	Y24	Z24	X25	Y25	Z25	X26	Y26	Z26	X27	Y27	Z27	X28	Y28	Z28	X29	Y29	Z29	X30	Y30	Z30	X31	Y31	Z31	X32	Y32	Z32	X33	Y33	Z33	

106	28.822500000000	811.754087815888	1019.526099268517	405.559703780317	1020.757137881046	1439.022828286842	228.157755081592	1113.852025465250	1360.711020054379	390.248649541804	1031.201234356367	1439.063925130515	562.371477364345	1019.541112937101	1499.432464645332	380.153065289308	1034.877119605336	952.984080346047	526.739523005221	1029.879341282606	965.430180448518	251.823366695614	1130.213592727014	802.102015862100	491.219597525190	1109.299218208646	679.658631448192	568.100691438369	1198.428772748627	650.322959134725	483.385089863276	1234.752399748529	543.079977477591	505.310905130913	1064.314416042010	748.739239616861	287.840608673705	969.077439628712	638.264720269249	229.969525146733	1045.073586677639	556.802218900473	297.985262994500	1040.393963421226	487.747474865334	309.537212730181	1012.973845874397	417.969541385028	301.338496149462	921.572383466467	304.466656639716	253.161408062375	969.328090988856	193.845261395784	326.975233652920	1174.523604230357	457.520319607211	516.868264559226	1066.968212267004	392.464795682067	580.010376646424	1077.672974874171	282.114937937832	533.553003229777	897.247525502977	177.719478333332	508.905404882003	1073.513623336217	152.974105315514	547.855402328759	967.155778124684	133.271938551399	583.841954648000	1159.301495253361	57.356157479261	578.685114872094	838.982369467797	39.640485702084	373.349357608382	911.703222533049	35.595353082917	291.761433887811	995.911837983542	96.211748368899	317.005293798186	1124.083964406301	40.930113892749	286.853276753565	1003.793265649235	1095.478129988322	84.283544806414	1207.562237783602	932.358686887602	77.994045436802	974.517030564542	1090.470534211481	674.021768810014	1026.628197204989	832.034761848241	676.292673801749	
107	28.834142857143	810.745464941231	1019.811816856646	405.010933783993	1021.734280439993	1439.188242370485	228.646060139907	1113.820213017049	1360.354078170479	391.097116531841	1030.495391417525	1438.630967153371	563.079514246708	1019.773283379871	1499.348996314908	380.764483415103	1033.610736763660	953.103146894133	527.010042170059	1029.215203881433	965.330352214034	251.924835709713	1129.245897416299	803.407205948298	491.706298718239	1108.956386674068	680.798223824479	568.868765107275	1198.247210554910	652.024442261473	484.275534971200	1236.110871653006	546.684658119314	506.257681243625	1061.721311214179	747.910773534744	288.189304667137	965.451554729268	638.219833522231	229.737333287231	1040.338541704053	556.039642871587	297.876725601802	1034.938359772519	487.184037580825	309.390474743438	1007.452001813197	417.581331097419	301.200367342707	915.667174723519	304.439751189262	252.997414126099	962.778915485890	193.666804051313	326.961332739280	1179.821041762898	459.620963782320	517.780811472801	1076.430549519371	388.879441954250	581.444548241944	1092.798295362579	279.327898297172	534.645533174937	918.314101349640	165.278642237704	510.753654164628	1095.696687815389	150.125212471215	548.706653264665	990.924719022092	124.567331486946	585.256577872989	1186.759459986902	59.283355502070	578.812315530711	832.009561635711	39.664286660729	373.314237018627	904.692575483849	35.593472085600	291.752047419892	988.935338013508	96.183165581108	316.989956357864	1117.075839109870	40.838631717040	286.835565406413	1006.488537437199	1096.589788083622	83.218615818997	1216.971557096244	942.800308386487	77.181655137243	965.246170931416	1091.982645848895	675.142431119738	1004.165841930859	831.412102078353	680.288849052094	
108	28.845785714286	809.838038184822	1020.013239471563	404.649603629410	1022.648568125109	1439.217610395997	229.221574692236	1113.803261414376	1359.907107098061	392.001622718016	1029.880652413814	1438.170924471098	563.841615581536	1020.033576006598	1499.173134128332	381.442843740651	1032.448405052784	953.035325338491	527.367014062241	1028.256911543188	964.935017025137	252.217145210348	1127.944677289041	804.064445599125	492.291910065982	1107.932702625026	681.306408899213	569.712133010767	1197.337876759359	652.894817402618	485.282045842934	1236.544022082970	549.596878345359	507.241234980898	1059.274563266670	747.045567905715	288.526017550341	961.828647840869	638.151086327705	229.580607122075	1035.641928883664	555.249640812929	297.766056743353	1029.523177297172	486.621513540944	309.263557464278	1001.963899132109	417.175934697371	301.095817326880	909.784612093777	304.405686442556	252.860957766022	956.264295945298	193.476702644489	326.965570693206	1184.345939517161	461.292334982123	518.731871024731	1085.665228681765	384.953338712445	583.069962349801	1107.735179077852	276.547598261784	535.815651443902	939.962846540884	152.863150356698	512.807071598076	1117.939509585988	147.714611998050	549.622011319842	1015.193459075826	116.201424379939	586.785549226271	1214.155141510889	62.118687884606	578.888497118233	825.040761790818	39.683760485592	373.278376454178	897.683310836380	35.588978174087	291.744542840523	981.957485121439	96.153838781623	316.982223573211	1110.066308720585	40.749547427318	286.820795632251	1009.096881439847	1097.575746123495	82.314944335761	1225.814590293955	953.395704307169	76.657433254490	955.729619887414	1093.828002594818	676.367910793588	982.720711294655	832.107491484057	683.786983598847	
109	28.857428571429	809.056416312117	1020.118214769950	404.472801800568	1023.468214462502	1439.117649956539	229.878833621855	1113.788113795395	1359.390942656089	392.953378364519	1029.350632620656	1437.707183831628	564.642601174623	1020.302496448828	1498.913835756752	382.175004353962	1031.419228649884	952.793338044522	527.821116017475	1027.054055661040	964.280894569416	252.702861959187	1126.342000766721	804.055769284604	492.985914581014	1106.262068415774	681.176128389860	570.634803195550	1195.739475730961	652.924397624302	486.398608751753	1236.090963490236	551.778475264417	508.249509792465	1056.977317889146	746.133604069105	288.857231007020	958.201575543618	638.066840069243	229.500138801193	1030.959987509964	554.431782862824	297.662069975555	1024.119037364949	486.055871344977	309.162200862586	996.478058416391	416.759864906488	301.024710063381	903.898435118379	304.367636695306	252.749232724877	949.767230580004	193.280113965734	326.984285113219	1188.072970393017	462.521608956725	519.716438188489	1094.579143099579	380.772614060322	584.855112757646	1122.304342586542	273.851471068254	537.030603783214	961.940839971941	140.691323356678	514.995408732100	1139.965820656424	145.842627810807	550.583008354033	1039.657965947248	108.335487936608	588.364824632658	1241.124378752291	65.889138074123	578.878271666501	818.067023893637	39.700591668373	373.242867346856	890.671914717644	35.581466082327	291.737319643806	974.973132422157	96.123992869167	316.980373672695	1103.052435753786	40.667275905119	286.808833442559	1011.620748493671	1098.434961414872	81.571650162593	1234.066201972808	964.078005862751	76.418386725849	946.055608433894	1096.046887698738	677.683681018282	962.344473707999	833.897301593814	686.872876006912	
